<svg width="32" height="32" viewBox="0 0 32 32" fill="none" xmlns="http://www.w3.org/2000/svg">
<path d="M24.5329 23.0749L9.35368 7.89567C8.85901 7.401 8.057 7.401 7.56234 7.89567L7.46806 7.98995C6.97339 8.48461 6.97339 9.28662 7.46806 9.78129L22.6473 24.9605C23.1419 25.4552 23.944 25.4552 24.4386 24.9605L24.5329 24.8662C25.0276 24.3716 25.0276 23.5696 24.5329 23.0749Z" fill="#1A1A1A"/>
<path d="M22.6472 7.92511L7.46793 23.1043C6.97327 23.599 6.97327 24.401 7.46793 24.8957L7.56221 24.9899C8.05688 25.4846 8.85889 25.4846 9.35355 24.9899L24.5328 9.81072C25.0274 9.31606 25.0274 8.51405 24.5328 8.01939L24.4385 7.92511C23.9438 7.43044 23.1418 7.43044 22.6472 7.92511Z" fill="#1A1A1A"/>
</svg>
